<svg xmlns="http://www.w3.org/2000/svg" viewBox="0 0 672 532" width="672" height="532" role="img" aria-label="Skill Radar" font-family="ui-sans-serif, -apple-system, 'Segoe UI', Helvetica, Arial, sans-serif"><text x="336.0" y="27" text-anchor="middle" font-size="15" font-weight="700" fill="#0891B2">Skill Radar</text><g transform="translate(312.8,280.5)"><polygon points="0.0,-202.0 174.9,-101.0 174.9,101.0 0.0,202.0 -174.9,101.0 -174.9,-101.0" fill="none" stroke="#CBD5E1" stroke-width="1" opacity="0.90"/><polygon points="0.0,-151.5 131.2,-75.8 131.2,75.7 0.0,151.5 -131.2,75.8 -131.2,-75.8" fill="none" stroke="#CBD5E1" stroke-width="1" opacity="0.78"/><polygon points="0.0,-101.0 87.5,-50.5 87.5,50.5 0.0,101.0 -87.5,50.5 -87.5,-50.5" fill="none" stroke="#CBD5E1" stroke-width="1" opacity="0.65"/><polygon points="0.0,-50.5 43.7,-25.2 43.7,25.2 0.0,50.5 -43.7,25.3 -43.7,-25.3" fill="none" stroke="#CBD5E1" stroke-width="1" opacity="0.53"/><line x1="0" y1="0" x2="0.0" y2="-202.0" stroke="#E2E8F0" stroke-width="1"/><line x1="0" y1="0" x2="174.9" y2="-101.0" stroke="#E2E8F0" stroke-width="1"/><line x1="0" y1="0" x2="174.9" y2="101.0" stroke="#E2E8F0" stroke-width="1"/><line x1="0" y1="0" x2="0.0" y2="202.0" stroke="#E2E8F0" stroke-width="1"/><line x1="0" y1="0" x2="-174.9" y2="101.0" stroke="#E2E8F0" stroke-width="1"/><line x1="0" y1="0" x2="-174.9" y2="-101.0" stroke="#E2E8F0" stroke-width="1"/><g><animateTransform attributeName="transform" type="scale" values="0.04;1" dur="1.1s" calcMode="spline" keyTimes="0;1" keySplines="0.22 1 0.36 1" fill="freeze"/><polygon points="0.0,-171.7 139.9,-80.8 143.4,82.8 0.0,181.8 -131.2,75.8 -136.5,-78.8" fill="#7C3AED" fill-opacity="0.28" stroke="#7C3AED" stroke-width="2.5" stroke-linejoin="round"/><circle cx="0.0" cy="-171.7" r="3.6" fill="#059669" stroke="#7C3AED" stroke-width="1.2"/><circle cx="139.9" cy="-80.8" r="3.6" fill="#059669" stroke="#7C3AED" stroke-width="1.2"/><circle cx="143.4" cy="82.8" r="3.6" fill="#059669" stroke="#7C3AED" stroke-width="1.2"/><circle cx="0.0" cy="181.8" r="3.6" fill="#059669" stroke="#7C3AED" stroke-width="1.2"/><circle cx="-131.2" cy="75.8" r="3.6" fill="#059669" stroke="#7C3AED" stroke-width="1.2"/><circle cx="-136.5" cy="-78.8" r="3.6" fill="#059669" stroke="#7C3AED" stroke-width="1.2"/></g><text x="0.0" y="-227.0" text-anchor="middle" font-size="12.5" font-weight="600" fill="#475569">Deep Learning / PyTorch</text><text x="192.3" y="-116.0" text-anchor="start" font-size="12.5" font-weight="600" fill="#475569">Machine Learning</text><text x="192.3" y="125.0" text-anchor="start" font-size="12.5" font-weight="600" fill="#475569">Data Science &amp; Stats</text><text x="0.0" y="236.0" text-anchor="middle" font-size="12.5" font-weight="600" fill="#475569">Python</text><text x="-192.3" y="125.0" text-anchor="end" font-size="12.5" font-weight="600" fill="#475569">PostgreSQL</text><text x="-192.3" y="-116.0" text-anchor="end" font-size="12.5" font-weight="600" fill="#475569">Frontend / Web</text></g></svg>